<?xml version="1.0" encoding="utf-8"?>
<!-- Generator: Adobe Illustrator 24.3.0, SVG Export Plug-In . SVG Version: 6.00 Build 0)  -->
<svg version="1.1" xmlns="http://www.w3.org/2000/svg" xmlns:xlink="http://www.w3.org/1999/xlink" x="0px" y="0px"
	 viewBox="0 0 135 40" style="enable-background:new 0 0 135 40;" xml:space="preserve">
<style type="text/css">
	.st0{fill:#FFFFFF;fill-opacity:0;}
	.st1{fill:#A6A6A6;}
	.st2{fill:#FFFFFF;}
	.st3{fill:url(#SVGID_1_);}
	.st4{fill:url(#SVGID_2_);}
	.st5{fill:url(#SVGID_3_);}
	.st6{fill:url(#SVGID_4_);}
	.st7{opacity:0.2;enable-background:new    ;}
	.st8{opacity:0.12;enable-background:new    ;}
	.st9{opacity:0.25;fill:#FFFFFF;enable-background:new    ;}
	.st10{fill:#FFFFFF;stroke:#FFFFFF;stroke-width:0.2;stroke-miterlimit:10;}
</style>
<g id="artwork">
	<g>
		<rect x="-10" y="-10" class="st0" width="155" height="60"/>
		<g>
			<path d="M130,40H5c-2.75,0-5-2.25-5-5V5c0-2.75,2.25-5,5-5h125c2.75,0,5,2.25,5,5v30C135,37.75,132.75,40,130,40z"/>
		</g>
		<g>
			<g>
				<path class="st1" d="M130,0.8c2.32,0,4.2,1.88,4.2,4.2v30c0,2.32-1.88,4.2-4.2,4.2H5c-2.32,0-4.2-1.88-4.2-4.2V5
					c0-2.32,1.88-4.2,4.2-4.2H130 M130,0H5C2.25,0,0,2.25,0,5v30c0,2.75,2.25,5,5,5h125c2.75,0,5-2.25,5-5V5
					C135,2.25,132.75,0,130,0L130,0z"/>
			</g>
		</g>
		<path class="st2" d="M64.72,12.79c-2.06,0-3.73,1.56-3.73,3.72c0,2.14,1.68,3.72,3.73,3.72c2.06,0,3.73-1.58,3.73-3.72
			C68.46,14.35,66.78,12.79,64.72,12.79z M64.72,18.76c-1.13,0-2.1-0.93-2.1-2.25c0-1.34,0.97-2.25,2.1-2.25
			c1.13,0,2.1,0.92,2.1,2.25C66.82,17.83,65.85,18.76,64.72,18.76z M56.58,12.79c-2.06,0-3.73,1.56-3.73,3.72
			c0,2.14,1.68,3.72,3.73,3.72c2.06,0,3.73-1.58,3.73-3.72C60.32,14.35,58.64,12.79,56.58,12.79z M56.58,18.76
			c-1.13,0-2.1-0.93-2.1-2.25c0-1.34,0.97-2.25,2.1-2.25c1.13,0,2.1,0.92,2.1,2.25C58.68,17.83,57.71,18.76,56.58,18.76z
			 M46.9,13.93v1.58h3.77c-0.11,0.89-0.41,1.53-0.86,1.99c-0.55,0.55-1.41,1.15-2.91,1.15c-2.32,0-4.14-1.87-4.14-4.2
			s1.82-4.2,4.14-4.2c1.25,0,2.17,0.49,2.84,1.13l1.11-1.11c-0.94-0.9-2.2-1.59-3.96-1.59c-3.18,0-5.86,2.59-5.86,5.77
			c0,3.18,2.68,5.77,5.86,5.77c1.72,0,3.01-0.56,4.03-1.62c1.04-1.04,1.37-2.51,1.37-3.69c0-0.37-0.03-0.7-0.08-0.99H46.9z
			 M86.5,15.16c-0.31-0.83-1.25-2.37-3.18-2.37c-1.92,0-3.51,1.51-3.51,3.72c0,2.08,1.58,3.72,3.69,3.72c1.7,0,2.69-1.04,3.1-1.65
			l-1.27-0.84c-0.42,0.62-1,1.03-1.83,1.03s-1.42-0.38-1.8-1.13l4.97-2.06L86.5,15.16z M81.43,16.4c-0.04-1.44,1.11-2.17,1.94-2.17
			c0.65,0,1.2,0.32,1.38,0.79L81.43,16.4z M77.39,20h1.63V9.07h-1.63V20z M74.72,13.62h-0.06c-0.37-0.44-1.07-0.83-1.96-0.83
			c-1.86,0-3.56,1.63-3.56,3.73c0,2.08,1.7,3.7,3.56,3.7c0.89,0,1.59-0.39,1.96-0.84h0.06v0.54c0,1.42-0.76,2.18-1.99,2.18
			c-1,0-1.62-0.72-1.87-1.32l-1.42,0.59c0.41,0.99,1.49,2.2,3.3,2.2c1.92,0,3.53-1.13,3.53-3.87v-6.68h-1.55V13.62z M72.84,18.76
			c-1.13,0-2.07-0.94-2.07-2.24c0-1.31,0.94-2.27,2.07-2.27c1.11,0,1.99,0.96,1.99,2.27C74.83,17.82,73.96,18.76,72.84,18.76z
			 M94.16,9.07h-3.91V20h1.63v-4.14h2.28c1.81,0,3.58-1.31,3.58-3.39S95.96,9.07,94.16,9.07z M94.2,14.34h-2.32v-3.75h2.32
			c1.22,0,1.91,1.01,1.91,1.87C96.11,13.31,95.42,14.34,94.2,14.34z M104.28,12.77c-1.18,0-2.4,0.52-2.91,1.67l1.45,0.6
			c0.31-0.6,0.89-0.8,1.49-0.8c0.84,0,1.7,0.51,1.72,1.41v0.11c-0.3-0.17-0.93-0.42-1.7-0.42c-1.56,0-3.15,0.86-3.15,2.46
			c0,1.46,1.28,2.4,2.71,2.4c1.1,0,1.7-0.49,2.08-1.07h0.06v0.84h1.57v-4.19C107.59,13.85,106.15,12.77,104.28,12.77z M104.08,18.76
			c-0.53,0-1.28-0.27-1.28-0.93c0-0.84,0.93-1.17,1.73-1.17c0.72,0,1.05,0.15,1.49,0.37C105.89,18.04,105.02,18.76,104.08,18.76z
			 M113.33,13.01l-1.87,4.74h-0.06l-1.94-4.74h-1.76l2.91,6.62l-1.66,3.68h1.7l4.48-10.3H113.33z M98.64,20h1.63V9.07h-1.63V20z"/>
		<g>
			
				<linearGradient id="SVGID_1_" gradientUnits="userSpaceOnUse" x1="21.7996" y1="33.2902" x2="5.0172" y2="16.5078" gradientTransform="matrix(1 0 0 -1 0 41.9998)">
				<stop  offset="0" style="stop-color:#00A0FF"/>
				<stop  offset="6.574450e-03" style="stop-color:#00A1FF"/>
				<stop  offset="0.2601" style="stop-color:#00BEFF"/>
				<stop  offset="0.5122" style="stop-color:#00D2FF"/>
				<stop  offset="0.7604" style="stop-color:#00DFFF"/>
				<stop  offset="1" style="stop-color:#00E3FF"/>
			</linearGradient>
			<path class="st3" d="M10.44,7.54c-0.29,0.31-0.46,0.79-0.46,1.4v22.12c0,0.62,0.17,1.1,0.46,1.4l0.07,0.07L22.9,20.15V20v-0.15
				L10.51,7.47L10.44,7.54z"/>
			
				<linearGradient id="SVGID_2_" gradientUnits="userSpaceOnUse" x1="33.8343" y1="21.9984" x2="9.6374" y2="21.9984" gradientTransform="matrix(1 0 0 -1 0 41.9998)">
				<stop  offset="0" style="stop-color:#FFE000"/>
				<stop  offset="0.4087" style="stop-color:#FFBD00"/>
				<stop  offset="0.7754" style="stop-color:#FFA500"/>
				<stop  offset="1" style="stop-color:#FF9C00"/>
			</linearGradient>
			<path class="st4" d="M27.03,24.28l-4.13-4.13V20v-0.15l4.13-4.13l0.09,0.05l4.89,2.78c1.4,0.79,1.4,2.09,0,2.89l-4.89,2.78
				L27.03,24.28z"/>
			
				<linearGradient id="SVGID_3_" gradientUnits="userSpaceOnUse" x1="24.8269" y1="19.7038" x2="2.0686" y2="-3.0545" gradientTransform="matrix(1 0 0 -1 0 41.9998)">
				<stop  offset="0" style="stop-color:#FF3A44"/>
				<stop  offset="1" style="stop-color:#C31162"/>
			</linearGradient>
			<path class="st5" d="M27.12,24.22L22.9,20L10.44,32.46c0.46,0.49,1.22,0.55,2.08,0.06L27.12,24.22"/>
			
				<linearGradient id="SVGID_4_" gradientUnits="userSpaceOnUse" x1="7.2972" y1="41.8237" x2="17.4598" y2="31.6612" gradientTransform="matrix(1 0 0 -1 0 41.9998)">
				<stop  offset="0" style="stop-color:#32A071"/>
				<stop  offset="0.0685" style="stop-color:#2DA771"/>
				<stop  offset="0.4762" style="stop-color:#15CF74"/>
				<stop  offset="0.8009" style="stop-color:#06E775"/>
				<stop  offset="1" style="stop-color:#00F076"/>
			</linearGradient>
			<path class="st6" d="M27.12,15.78l-14.61-8.3c-0.86-0.49-1.62-0.43-2.08,0.06L22.9,20L27.12,15.78z"/>
			<g>
				<path class="st7" d="M27.03,24.13l-14.52,8.25c-0.81,0.46-1.54,0.43-2,0.01l0,0l-0.07,0.07l0,0l0.07,0.07l0,0
					c0.47,0.42,1.19,0.45,2-0.01l14.61-8.3L27.03,24.13z"/>
				<path class="st8" d="M10.44,32.32c-0.29-0.31-0.46-0.79-0.46-1.4v0.15c0,0.62,0.17,1.1,0.46,1.4l0.07-0.07L10.44,32.32z"/>
			</g>
			<path class="st8" d="M32.01,21.3l-4.99,2.83l0.09,0.09l4.89-2.78c0.7-0.4,1.05-0.92,1.05-1.44l0,0
				C33,20.47,32.65,20.94,32.01,21.3z"/>
			<path class="st9" d="M12.51,7.62l19.5,11.08c0.63,0.36,0.99,0.82,1.05,1.3l0,0c0-0.52-0.35-1.05-1.05-1.44L12.51,7.48
				c-1.4-0.79-2.54-0.13-2.54,1.47v0.15C9.97,7.49,11.12,6.83,12.51,7.62z"/>
		</g>
	</g>
</g>
<g id="Layer_3">
	<g>
		<path class="st10" d="M42.03,27.02l-0.17,2.16H41.4l-0.17-2.16H42.03z"/>
		<path class="st10" d="M48.34,29.95c0,0.99-0.27,1.74-0.81,2.27C47,32.74,46.22,33,45.22,33h-1.67v-5.98h1.84
			c0.93,0,1.65,0.26,2.17,0.77C48.08,28.3,48.34,29.02,48.34,29.95z M47.55,29.98c0-0.76-0.19-1.34-0.56-1.73s-0.94-0.59-1.7-0.59
			h-0.98v4.69h0.81C46.74,32.35,47.55,31.56,47.55,29.98z"/>
		<path class="st10" d="M51.81,27.59c-0.61,0-1.25,0.11-1.91,0.34v-0.69c0.34-0.12,0.66-0.2,0.96-0.25c0.3-0.05,0.62-0.07,0.97-0.07
			c0.91,0,1.61,0.27,2.12,0.82c0.5,0.54,0.76,1.3,0.76,2.28c0,0.95-0.24,1.7-0.71,2.25c-0.47,0.54-1.13,0.82-1.99,0.82
			c-0.82,0-1.44-0.26-1.86-0.77c-0.42-0.51-0.62-1.28-0.62-2.3v-0.29h4.38c-0.05-0.71-0.25-1.24-0.6-1.6
			C52.95,27.77,52.45,27.59,51.81,27.59z M52,32.42c0.56,0,1-0.18,1.34-0.53c0.33-0.36,0.52-0.86,0.56-1.5h-3.58
			c0,0.7,0.14,1.21,0.41,1.54C51.01,32.26,51.43,32.42,52,32.42z"/>
		<path class="st10" d="M60.51,27.59c-0.61,0-1.25,0.11-1.91,0.34v-0.69c0.34-0.12,0.66-0.2,0.96-0.25c0.3-0.05,0.62-0.07,0.97-0.07
			c0.91,0,1.61,0.27,2.12,0.82c0.5,0.54,0.76,1.3,0.76,2.28c0,0.95-0.24,1.7-0.71,2.25c-0.47,0.54-1.13,0.82-1.99,0.82
			c-0.82,0-1.44-0.26-1.86-0.77c-0.42-0.51-0.62-1.28-0.62-2.3v-0.29h4.38c-0.05-0.71-0.25-1.24-0.6-1.6
			C61.65,27.77,61.15,27.59,60.51,27.59z M60.7,32.42c0.56,0,1-0.18,1.34-0.53c0.33-0.36,0.52-0.86,0.56-1.5h-3.58
			c0,0.7,0.14,1.21,0.41,1.54C59.71,32.26,60.13,32.42,60.7,32.42z"/>
		<path class="st10" d="M64.9,33v-5.98h0.75v5.31h2.61V33H64.9z"/>
		<path class="st10" d="M74.25,29.95c0,0.99-0.27,1.74-0.81,2.27C72.9,32.74,72.13,33,71.12,33h-1.67v-5.98h1.84
			c0.93,0,1.65,0.26,2.17,0.77C73.99,28.3,74.25,29.02,74.25,29.95z M73.45,29.98c0-0.76-0.19-1.34-0.56-1.73s-0.94-0.59-1.7-0.59
			h-0.98v4.69h0.81C72.64,32.35,73.45,31.56,73.45,29.98z"/>
		<path class="st10" d="M77.71,27.59c-0.61,0-1.25,0.11-1.91,0.34v-0.69c0.34-0.12,0.66-0.2,0.96-0.25c0.3-0.05,0.62-0.07,0.97-0.07
			c0.91,0,1.61,0.27,2.12,0.82c0.5,0.54,0.76,1.3,0.76,2.28c0,0.95-0.24,1.7-0.71,2.25c-0.47,0.54-1.13,0.82-1.99,0.82
			c-0.82,0-1.44-0.26-1.86-0.77c-0.42-0.51-0.62-1.28-0.62-2.3v-0.29h4.38c-0.05-0.71-0.25-1.24-0.6-1.6
			C78.86,27.77,78.36,27.59,77.71,27.59z M77.9,32.42c0.56,0,1-0.18,1.34-0.53c0.33-0.36,0.52-0.86,0.56-1.5h-3.58
			c0,0.7,0.14,1.21,0.41,1.54C76.91,32.26,77.33,32.42,77.9,32.42z"/>
		<path class="st10" d="M87.79,33h-3.34v-5.98h3.34v0.66H85.2v1.87h2.44v0.65H85.2v2.14h2.59V33z"/>
		<path class="st10" d="M94.06,29.95c0,0.99-0.27,1.74-0.81,2.27C92.72,32.74,91.95,33,90.94,33h-1.67v-5.98h1.84
			c0.93,0,1.65,0.26,2.17,0.77C93.81,28.3,94.06,29.02,94.06,29.95z M93.27,29.98c0-0.76-0.19-1.34-0.56-1.73s-0.94-0.59-1.7-0.59
			h-0.98v4.69h0.81C92.46,32.35,93.27,31.56,93.27,29.98z"/>
		<path class="st10" d="M97.24,33h-2.16v-0.43l0.7-0.16v-4.79l-0.7-0.17v-0.43h2.16v0.43l-0.7,0.17v4.79l0.7,0.16V33z"/>
		<path class="st10" d="M103.31,33h-0.88l-3.2-4.97h-0.03l0.02,0.33c0.03,0.5,0.05,0.93,0.05,1.29V33h-0.7v-5.98h0.87l0.18,0.29
			l1.96,3.04l1.04,1.62h0.03c-0.01-0.07-0.02-0.3-0.03-0.7c-0.02-0.4-0.02-0.69-0.02-0.87v-3.38h0.7V33z"/>
	</g>
</g>
</svg>
