<?xml version="1.0" encoding="utf-8"?>
<!-- Generator: Adobe Illustrator 24.3.0, SVG Export Plug-In . SVG Version: 6.00 Build 0)  -->
<svg version="1.1" id="Layer_1" xmlns="http://www.w3.org/2000/svg" xmlns:xlink="http://www.w3.org/1999/xlink" x="0px" y="0px"
	 viewBox="0 0 320.08 120.2" style="enable-background:new 0 0 320.08 120.2;" xml:space="preserve">
<style type="text/css">
	.st0{fill-rule:evenodd;clip-rule:evenodd;fill:#010005;}
	.st1{fill-rule:evenodd;clip-rule:evenodd;fill:#FFFFFF;}
</style>
<path class="st0" d="M114.28,99.63c9.64-3.56,13.95-3.8,21.64-9.58c12.03-9.03,12.97-37.21-12.66-34.98
	c-35.61,3.1-40.95,70,6.75,64.34c10.07-1.2,16.05-5.19,22.52-9.26c0.87,1.39,2.83,12.6,12.35,8.9c7.38-2.87,5.44-20.03,18.11-38.46
	c1.08-1.56,4.81-6.57,6.8-3.92c1.58,5.83-3.16,13.17,3.27,19.34c5.08,4.88,11.96,3.55,19.25,2.36c3.3,5.8,3.54,18.15,22.64,20.88
	c6.89,0.98,12.87,0.03,18.92-2.22c8.45-3.13,11.68-7.1,14.56-8.06c5.09,12.67,34.15,15.43,45.5,0.54
	c7.99-10.48,3.07-21.32-2.92-15.29c-3.82,3.85-5.51,7.32-10.19,9.96c-6.78,3.81-16.54,1.86-19.25-4.83
	c17.25-2.98,33.07-13.73,29.48-31.58c-2.55-12.65-15.8-14.83-26.26-11.47c-5.72,1.84-9.34,5.16-12.45,8.39
	c-7.95,8.29-9.53,17.72-9.25,31.79c-4.56,2.69-7.71,6.58-14.91,8.36c-17,4.21-21.72-11.1-17.19-25.65
	c1.54-4.95,6.11-12.79,12.53-10.43c4.22,4.51-1.98,9.46,0.9,13.58c4.13,5.89,16.52-0.15,13.79-15.07
	c-3.31-18.07-29.89-16.22-41.08,3.92c-2.17,3.9-3.4,10.07-4.83,12.5c-10.64,2.29-4.74-9.1-4.03-18.75
	c1.02-14-16.49-14.61-30.48,4.58c-2.11,2.9-9.08,14.67-9.25,17.88c-1.39-9.04,6.01-22.33,4.88-31.63c-9-2.95-14.68,0.38-17.32,9.63
	c-2.55,8.95-3.25,15.99-4.09,25.71c-0.37,4.25-2.93,5.63-6.43,7.95c-2.77,1.84-6.08,3.9-9.72,5.22
	C128.07,107.09,116.97,106.43,114.28,99.63"/>
<path class="st0" d="M50.1,2.27c-16.63,1.87-24.99,4.39-33.38,14.1c-8.05,9.31-9.78,25.68-1.67,36.07
	c7.26,9.3,15.91,12.23,29.55,17.9c9.86,4.1,27.53,9.86,20.89,24.7c-4.43,9.9-22.52,12.03-35.76,9.03
	C5.6,98.61,29.02,77.24,10.88,76.44C-2.76,75.85-2.44,98.4,5.6,108.7c9.57,12.27,51.3,18.65,72.19-1.39
	c8.09-7.76,11.02-24.83,3.47-35.3c-13.33-18.48-57.34-18.97-52.2-42.06c1.37-6.15,5.73-9.54,11.96-11.4
	c8.92-2.67,33.07-3.99,31.74,12.75c-0.63,7.91-1.45,15.04,7.65,15.02c12.39-0.03,13-22.41,5.42-32.13
	C79.69,6.34,64.25,0.68,50.1,2.27"/>
<path class="st1" d="M111.95,88.8c28.1-4.74,16.82-32.52,4.05-15.42C113.17,77.17,112.02,83.1,111.95,88.8"/>
<path class="st1" d="M279.47,88.78c14.96-2.57,21.25-14.31,16.01-19.16C290.09,64.63,279.6,72.04,279.47,88.78"/>
</svg>
