<?xml version="1.0" encoding="utf-8"?>
<!-- Generator: Adobe Illustrator 24.3.0, SVG Export Plug-In . SVG Version: 6.00 Build 0)  -->
<svg version="1.1" id="Layer_1" xmlns="http://www.w3.org/2000/svg" xmlns:xlink="http://www.w3.org/1999/xlink" x="0px" y="0px"
	 viewBox="0 0 320.1 120.2" style="enable-background:new 0 0 320.1 120.2;" xml:space="preserve">
<style type="text/css">
	.st0{fill-rule:evenodd;clip-rule:evenodd;fill:#FFFFFF;}
	.st1{fill-rule:evenodd;clip-rule:evenodd;}
</style>
<path class="st0" d="M114.3,99.6c9.6-3.6,13.9-3.8,21.6-9.6c12-9,13-37.2-12.7-35c-35.6,3.1-40.9,70,6.8,64.3
	c10.1-1.2,16.1-5.2,22.5-9.3c0.9,1.4,2.8,12.6,12.4,8.9c7.4-2.9,5.4-20,18.1-38.5c1.1-1.6,4.8-6.6,6.8-3.9
	c1.6,5.8-3.2,13.2,3.3,19.3c5.1,4.9,12,3.6,19.2,2.4c3.3,5.8,3.5,18.2,22.6,20.9c6.9,1,12.9,0,18.9-2.2c8.4-3.1,11.7-7.1,14.6-8.1
	c5.1,12.7,34.1,15.4,45.5,0.5c8-10.5,3.1-21.3-2.9-15.3c-3.8,3.8-5.5,7.3-10.2,10c-6.8,3.8-16.5,1.9-19.2-4.8
	c17.2-3,33.1-13.7,29.5-31.6c-2.5-12.7-15.8-14.8-26.3-11.5c-5.7,1.8-9.3,5.2-12.5,8.4c-8,8.3-9.5,17.7-9.2,31.8
	c-4.6,2.7-7.7,6.6-14.9,8.4c-17,4.2-21.7-11.1-17.2-25.7c1.5-4.9,6.1-12.8,12.5-10.4c4.2,4.5-2,9.5,0.9,13.6
	c4.1,5.9,16.5-0.2,13.8-15.1c-3.3-18.1-29.9-16.2-41.1,3.9c-2.2,3.9-3.4,10.1-4.8,12.5c-10.6,2.3-4.7-9.1-4-18.8
	c1-14-16.5-14.6-30.5,4.6c-2.1,2.9-9.1,14.7-9.2,17.9c-1.4-9,6-22.3,4.9-31.6c-9-3-14.7,0.4-17.3,9.6c-2.6,8.9-3.2,16-4.1,25.7
	c-0.4,4.2-2.9,5.6-6.4,7.9c-2.8,1.8-6.1,3.9-9.7,5.2C128.1,107.1,117,106.4,114.3,99.6"/>
<path class="st0" d="M50.1,2.3c-16.6,1.9-25,4.4-33.4,14.1C8.7,25.7,6.9,42.1,15,52.4c7.3,9.3,15.9,12.2,29.6,17.9
	c9.9,4.1,27.5,9.9,20.9,24.7c-4.4,9.9-22.5,12-35.8,9C5.6,98.6,29,77.2,10.9,76.4c-13.6-0.6-13.3,22-5.3,32.3
	c9.6,12.3,51.3,18.7,72.2-1.4c8.1-7.8,11-24.8,3.5-35.3C67.9,53.5,23.9,53,29.1,29.9c1.4-6.1,5.7-9.5,12-11.4
	c8.9-2.7,33.1-4,31.7,12.8c-0.6,7.9-1.4,15,7.7,15c12.4,0,13-22.4,5.4-32.1C79.7,6.3,64.2,0.7,50.1,2.3"/>
<path class="st1" d="M111.9,88.8c28.1-4.7,16.8-32.5,4.1-15.4C113.2,77.2,112,83.1,111.9,88.8"/>
<path class="st1" d="M279.5,88.8c15-2.6,21.2-14.3,16-19.2C290.1,64.6,279.6,72,279.5,88.8"/>
</svg>
