<?xml version="1.0" encoding="utf-8"?>
<!-- Generator: Adobe Illustrator 24.3.0, SVG Export Plug-In . SVG Version: 6.00 Build 0)  -->
<svg version="1.1" id="Layer_1" xmlns="http://www.w3.org/2000/svg" xmlns:xlink="http://www.w3.org/1999/xlink" x="0px" y="0px"
	 viewBox="0 0 202.21 199.96" style="enable-background:new 0 0 202.21 199.96;" xml:space="preserve">
<style type="text/css">
	.st0{fill-rule:evenodd;clip-rule:evenodd;fill:#010005;}
	.st1{fill-rule:evenodd;clip-rule:evenodd;fill:#FFFFFF;}
</style>
<path d="M199.93,190.86l-0.34-0.42l-0.01-0.01l-46.02-56.81l-12.16-15.01l-2.02-2.49l-15.51-19.14l-39.78-49.1v-0.01
	c-0.14-1.11-0.29-2.22-0.48-3.33c-1.59-9.63-4.75-18.61-9.16-26.74c-0.06-0.11-0.12-0.23-0.19-0.34c-0.23-0.41-0.46-0.83-0.69-1.24
	c-0.02-0.02-0.03-0.05-0.04-0.07c-3.53-5.91-8.85-10.52-15.11-13.2c-3.48-1.5-7.26-2.39-11.17-2.58c-2.26-0.11-4.57,0.02-6.89,0.4
	c-2.33,0.38-4.55,1.01-6.66,1.84C25.27,5.92,18.75,12.6,15.49,20.77c-0.4,1-0.75,2.03-1.05,3.07l-0.09,0.04l-2.68,1.22l-6.36,2.91
	l6.36,2.9l1.34,0.61v0.01c-0.17,1.37-0.32,2.74-0.42,4.12c-0.09,1.17-0.16,2.34-0.19,3.52c-0.2,5.38,0.13,10.86,1.01,16.37
	c-8.09,9.24-13,21.34-13,34.59c0,3.15,0.28,6.23,0.81,9.23c0.02,0.16,0.05,0.32,0.09,0.47c0.07,0.35,0.13,0.69,0.2,1.04
	c0.02,0.1,0.04,0.2,0.06,0.29c2.9,13.94,9.22,26.62,18.04,37.14c0.62,0.75,1.27,1.49,1.92,2.21c9.37,10.43,21.28,18.52,34.77,23.31
	c0.3,0.12,0.6,0.22,0.91,0.32c0.38,0.12,0.76,0.25,1.14,0.38c0.14,0.05,0.26,0.09,0.4,0.13c4.93,1.53,10.18,2.36,15.62,2.36
	c13.67,0,26.13-5.23,35.47-13.79c0.04-0.03,0.07-0.06,0.1-0.09c0.5-0.46,1-0.94,1.47-1.42c0.02-0.03,0.05-0.06,0.08-0.08
	c3.33-3.59,5.37-8.39,5.37-13.67c0-3.08-0.7-6-1.94-8.61c-0.25-0.53-0.53-1.06-0.83-1.56c-0.51-0.74-1.15-1.38-1.88-1.9
	c-0.95-0.68-2.06-1.14-3.29-1.32c-0.24-0.04-0.48-0.06-0.72-0.07c-0.14-0.01-0.29-0.01-0.43-0.01c-4.7-0.13-9.33-0.65-13.85-1.54
	c-2.66-0.52-5.29-1.16-7.87-1.93c-7.18-2.13-14.01-5.2-20.32-9.09c-2.74-1.68-5.38-3.52-7.91-5.51
	c-9.23-7.22-16.98-16.35-22.61-26.93c-3.26-6.11-5.8-12.71-7.51-19.69c-0.52-2.1-0.96-4.24-1.32-6.41
	c-0.44-2.69-0.75-5.36-0.93-8.02c-0.34-4.79-0.25-9.54,0.2-14.2c0-0.03,0.01-0.07,0.01-0.1c0-0.05,0.01-0.1,0.01-0.15
	c0-0.05,0.01-0.1,0.01-0.16c0.5-5.06,2.93-9.69,6.63-12.99v-0.01c0.01-0.01,0.02-0.02,0.04-0.03c2.73-2.42,6.16-4.12,10.02-4.77
	c9.01-1.49,17.6,3.27,21.36,11.11c0.16,0.34,0.32,0.68,0.46,1.03c2.16,4.79,3.88,9.84,5.14,15.11c0.46,1.93,0.85,3.89,1.18,5.87
	c0.27,1.65,0.5,3.3,0.67,4.95c0.01,0.11,0.02,0.21,0.04,0.32c0.05,0.35,0.15,0.7,0.28,1.03c0.18,0.46,0.44,0.89,0.74,1.26l0.15,0.17
	l7.06,8.4h0.01l4.77,5.68l21.14,25.13l21.35,25.4l2.26,2.69l0.91,1.09h0.01l16.68,19.84l45.97,54.67c0.29,0.34,0.61,0.67,0.98,0.91
	c0.89,0.59,2,0.88,3.17,0.75c2.15-0.25,3.89-2,4.14-4.15C200.98,192.96,200.63,191.78,199.93,190.86"/>
<path d="M38.94,28.2c0,1.62-1.31,2.93-2.93,2.93c-1.62,0-2.93-1.31-2.93-2.93c0-1.62,1.31-2.93,2.93-2.93
	C37.63,25.27,38.94,26.58,38.94,28.2"/>
</svg>
