<?xml version="1.0" encoding="utf-8"?>
<!-- Generator: Adobe Illustrator 24.3.0, SVG Export Plug-In . SVG Version: 6.00 Build 0)  -->
<svg version="1.1" id="_x31__x2C_5" xmlns="http://www.w3.org/2000/svg" xmlns:xlink="http://www.w3.org/1999/xlink" x="0px"
	 y="0px" viewBox="0 0 512 512" style="enable-background:new 0 0 512 512;" xml:space="preserve">
<style type="text/css">
	.st0{fill:#607D8B;}
</style>
<path class="st0" d="M325.3,48V16H186.7v32c0,11.8,9.6,21.3,21.3,21.3h96C315.8,69.3,325.3,59.8,325.3,48z"/>
<path d="M304,85.3h-96c-20.6,0-37.3-16.7-37.3-37.3c0-8.8-7.2-16-16-16H144c-8.8,0-16-7.2-16-16s7.2-16,16-16h10.7
	c26.5,0,48,21.5,48,48c0,2.9,2.4,5.3,5.3,5.3h96c2.9,0,5.3-2.4,5.3-5.3c0-26.5,21.5-48,48-48H368c8.8,0,16,7.2,16,16s-7.2,16-16,16
	h-10.7c-8.8,0-16,7.2-16,16C341.3,68.6,324.6,85.3,304,85.3z"/>
<path d="M368,512H144c-32.4,0-58.7-26.3-58.7-58.7V58.7C85.3,26.3,111.6,0,144,0h224c32.4,0,58.7,26.3,58.7,58.7v394.7
	C426.7,485.7,400.4,512,368,512z M144,32c-14.7,0-26.7,12-26.7,26.7v394.7c0,14.7,12,26.7,26.7,26.7h224c14.7,0,26.7-12,26.7-26.7
	V58.7c0-14.7-12-26.7-26.7-26.7H144z"/>
<path d="M256,321.8c-3.6,0-6.5-2.9-6.5-6.5V180.5c0-3.6,2.9-6.5,6.5-6.5s6.5,2.9,6.5,6.5v134.8C262.5,318.8,259.6,321.8,256,321.8z"
	/>
<path d="M256,321.8c-1.7,0-3.3-0.6-4.6-1.9l-34.8-34.8c-2.5-2.5-2.5-6.7,0-9.2c2.5-2.5,6.7-2.5,9.2,0L256,306l30.2-30.2
	c2.5-2.5,6.7-2.5,9.2,0c2.5,2.5,2.5,6.7,0,9.2l-34.8,34.8C259.3,321.1,257.7,321.8,256,321.8z"/>
<path d="M336.4,382.6H175.6c-13.2,0-23.9-10.7-23.9-23.9v-39.1c0-3.6,2.9-6.5,6.5-6.5s6.5,2.9,6.5,6.5v39.1c0,6,4.9,10.9,10.9,10.9
	h160.8c6,0,10.9-4.9,10.9-10.9v-39.1c0-3.6,2.9-6.5,6.5-6.5s6.5,2.9,6.5,6.5v39.1C360.3,371.9,349.6,382.6,336.4,382.6z"/>
</svg>
