<?xml version="1.0" encoding="utf-8"?>
<!-- Generator: Adobe Illustrator 24.3.0, SVG Export Plug-In . SVG Version: 6.00 Build 0)  -->
<svg version="1.1" id="_x31__x2C_5" xmlns="http://www.w3.org/2000/svg" xmlns:xlink="http://www.w3.org/1999/xlink" x="0px"
	 y="0px" viewBox="0 0 512 512" style="enable-background:new 0 0 512 512;" xml:space="preserve">
<style type="text/css">
	.st0{fill:#607D8B;}
</style>
<path class="st0" d="M325.3,48V16H186.7v32c0,11.8,9.6,21.3,21.3,21.3h96C315.8,69.3,325.3,59.8,325.3,48z"/>
<path d="M304,85.3h-96c-20.6,0-37.3-16.7-37.3-37.3c0-8.8-7.2-16-16-16H144c-8.8,0-16-7.2-16-16s7.2-16,16-16h10.7
	c26.5,0,48,21.5,48,48c0,2.9,2.4,5.3,5.3,5.3h96c2.9,0,5.3-2.4,5.3-5.3c0-26.5,21.5-48,48-48H368c8.8,0,16,7.2,16,16s-7.2,16-16,16
	h-10.7c-8.8,0-16,7.2-16,16C341.3,68.6,324.6,85.3,304,85.3z"/>
<path d="M368,512H144c-32.4,0-58.7-26.3-58.7-58.7V58.7C85.3,26.3,111.6,0,144,0h224c32.4,0,58.7,26.3,58.7,58.7v394.7
	C426.7,485.7,400.4,512,368,512z M144,32c-14.7,0-26.7,12-26.7,26.7v394.7c0,14.7,12,26.7,26.7,26.7h224c14.7,0,26.7-12,26.7-26.7
	V58.7c0-14.7-12-26.7-26.7-26.7H144z"/>
<g>
	<g>
		<path d="M256,158.7c-42.7,0-77.5,34.7-77.5,77.5c0,14.4,4,28.5,11.6,40.7l61.5,99.1c1.2,1.9,3.3,3.1,5.5,3.1c0,0,0,0,0.1,0
			c2.3,0,4.3-1.2,5.5-3.1l59.9-100c7.1-12,10.9-25.7,10.9-39.7C333.5,193.4,298.7,158.7,256,158.7z M311.5,269.2l-54.5,91L201.1,270
			c-6.3-10.2-9.7-21.9-9.7-33.9c0-35.6,29-64.6,64.6-64.6s64.6,29,64.6,64.6C320.6,247.8,317.4,259.2,311.5,269.2z"/>
	</g>
</g>
<g>
	<g>
		<path d="M256,197.4c-21.4,0-38.7,17.4-38.7,38.7c0,21.2,17.1,38.7,38.7,38.7c21.9,0,38.7-17.7,38.7-38.7
			C294.7,214.8,277.4,197.4,256,197.4z M256,262c-14.3,0-25.9-11.6-25.9-25.9c0-14.2,11.7-25.9,25.9-25.9
			c14.2,0,25.9,11.7,25.9,25.9C281.9,250.2,270.5,262,256,262z"/>
	</g>
</g>
</svg>
