<svg height="512" viewBox="0 0 60 60" width="512" xmlns="http://www.w3.org/2000/svg"><g id="Page-1" fill="none" fill-rule="evenodd"><g id="026---Scooter-Parking" fill="rgb(0,0,0)" fill-rule="nonzero" transform="translate(-1)"><path id="Shape" d="m45 47h-5.17c-1.3262275-.0000096-2.5982841.5261478-3.537 1.463l-2.537 2.537h-21.568c-.2531101-.4388526-.5605337-.844047-.915-1.206l1.165-8.064c.1252266-.8650395-.0483274-1.7469198-.492-2.5l2.785-17.23h4.651c1.6081197 1.4182283 4.0484851 1.3162204 5.5326372-.2312657s1.4841521-3.9899825 0-5.5374686-3.9245175-1.649494-5.5326372-.2312657h-9.402c-1.36994963.0152531-2.55552346.9566623-2.88081274 2.2875197-.32528928 1.3308575.29235736 2.7130113 1.50081274 3.3584803l-2.736 16.804c-.58766292.5857599-.97093525 1.3452914-1.093 2.166l-1.237 8.495c-2.00421501 1.4161612-2.94294248 3.9108308-2.36949921 6.2969476.57344327 2.3861167 2.54324784 4.1817937 4.97210375 4.5325776s4.82624486-.8141677 6.05139546-2.9405252h21.982c.5101972-.0076069 1.0161597-.0939579 1.5-.256 1.2614803 2.4695692 4.0524961 3.7511498 6.7476825 3.0984056 2.6951864-.6527441 4.5905513-3.069314 4.5823175-5.8424056-.0014041-.5394066-.0767728-1.0760727-.224-1.595 1.0458568-.7650891 1.4800895-2.1166256 1.075577-3.3477012-.4045126-1.2310757-1.5557534-2.0616499-2.851577-2.0572988zm-34.823-9.361c-.32206115-.1503694-.66378314-.254401-1.015-.309-.36205674-.0473779-.72897315-.043675-1.09.011l2.495-15.341h2.138zm11.823-20.639c1.1045695 0 2 .8954305 2 2s-.8954305 2-2 2-2-.8954305-2-2 .8954305-2 2-2zm-12.713 1.288c.1841304-.1834093.4331121-.2868822.693-.288h8.162c-.1893403.653223-.1893403 1.346777 0 2h-8.162c-.04249276-.001506-.08488111-.0051775-.127-.011-.49140501-.0704119-.85552182-.4925825-.853-.989-.00220714-.2659394.10098116-.5219326.287-.712zm-2.538 22.617c.06660212-.4725993.31129252-.9018807.684-1.2.60037313-.4836896 1.4358012-.5500794 2.10503229-.1672828.66923111.3827967 1.03553101 1.1365685.92296771 1.8992828l-1.024 7.085c-1.1719647-.5272276-2.4836452-.6588519-3.737-.375zm.251 17.095c-2.209139 0-4-1.790861-4-4s1.790861-4 4-4 4 1.790861 4 4-1.790861 4-4 4zm5.91-3c.1200121-.6612656.1200121-1.3387344 0-2h21.26c.2651948-.0000566.5195073-.1054506.707-.293l2.823-2.826c.5654747-.5639116 1.3314026-.8807109 2.13-.881h5.17c.5522847 0 1 .4477153 1 1s-.4477153 1-1 1h-5.17c-.2651948.0000566-.5195073.1054506-.707.293l-2.823 2.826c-.5654747.5639116-1.3314026.8807109-2.13.881zm28.09 3c-1.5185292-.0078861-2.9038368-.868292-3.584-2.226.1-.082.2-.148.291-.237l2.293-2.293v.756c0 .5522847.4477153 1 1 1s1-.4477153 1-1v-1h2.86c.0895278.3259152.1365838.6620292.14 1 0 2.209139-1.790861 4-4 4z"/><circle id="Oval" cx="7" cy="54" r="1"/><path id="Shape" d="m57 0h-36c-2.209139 0-4 1.790861-4 4v9c0 .5522847.4477153 1 1 1s1-.4477153 1-1v-9c0-1.1045695.8954305-2 2-2h36c1.1045695 0 2 .8954305 2 2v36c0 1.1045695-.8954305 2-2 2h-36c-1.1045695 0-2-.8954305-2-2v-15c0-.5522847-.4477153-1-1-1s-1 .4477153-1 1v15c0 2.209139 1.790861 4 4 4h36c2.209139 0 4-1.790861 4-4v-36c0-2.209139-1.790861-4-4-4z"/><path id="Shape" d="m23 9v-3h3c.5522847 0 1-.44771525 1-1s-.4477153-1-1-1h-4c-.5522847 0-1 .44771525-1 1v4c0 .55228475.4477153 1 1 1s1-.44771525 1-1z"/><path id="Shape" d="m51 39c0 .5522847.4477153 1 1 1h4c.5522847 0 1-.4477153 1-1v-4c0-.5522847-.4477153-1-1-1s-1 .4477153-1 1v3h-3c-.5522847 0-1 .4477153-1 1z"/><path id="Shape" d="m42 11h-8c-.5522847 0-1 .4477153-1 1v8c0 .5522847.4477153 1 1 1h8c2.7614237 0 5-2.2385763 5-5s-2.2385763-5-5-5zm0 8h-7v-6h7c1.6568542 0 3 1.3431458 3 3s-1.3431458 3-3 3z"/><path id="Shape" d="m42 6h-10.5c-1.9329966 0-3.5 1.56700338-3.5 3.5v25c0 1.9329966 1.5670034 3.5 3.5 3.5s3.5-1.5670034 3.5-3.5v-8.5h7c5.5228475 0 10-4.4771525 10-10s-4.4771525-10-10-10zm0 18h-8c-.5522847 0-1 .4477153-1 1v9.5c0 .8284271-.6715729 1.5-1.5 1.5s-1.5-.6715729-1.5-1.5v-25c0-.82842712.6715729-1.5 1.5-1.5h10.5c4.418278 0 8 3.581722 8 8s-3.581722 8-8 8z"/></g></g></svg>